<svg width="150" height="150" viewBox="-1 -1 31 31" xmlns="http://www.w3.org/2000/svg" shape-rendering="geometricPrecision"><rect fill="#FFF" x="-1" y="-1" width="31" height="31" ry="1.35"/><path fill-rule="evenodd" d="M8 .4a.4.4 0 0 1 .4-.4h.2a.4.4 0 0 1 .4.4v.2a.4.4 0 0 1-.4.4h-.2A.4.4 0 0 1 8 .6zm4 0a.4.4 0 0 1 .4-.4h.2a.4.4 0 0 1 .4.4v1.2a.4.4 0 0 1-.4.4h-.2a.4.4 0 0 0-.4.4v.2a.4.4 0 0 1-.4.4h-.2a.4.4 0 0 0-.4.4v.2a.4.4 0 0 1-.4.4H9.4a.4.4 0 0 0-.4.4v.2a.4.4 0 0 1-.4.4h-.2a.4.4 0 0 1-.4-.4V2.4a.4.4 0 0 1 .4-.4h.2a.4.4 0 0 0 .4-.4v-.2a.4.4 0 0 1 .4-.4h2.2a.4.4 0 0 0 .4-.4zm4 0a.4.4 0 0 1 .4-.4h.2a.4.4 0 0 1 .4.4v.2a.4.4 0 0 1-.4.4h-.2a.4.4 0 0 1-.4-.4zm2 0a.4.4 0 0 1 .4-.4h2.2a.4.4 0 0 1 .4.4v3.2a.4.4 0 0 1-.4.4h-.2a.4.4 0 0 1-.4-.4v-.2a.4.4 0 0 0-.4-.4h-.2a.4.4 0 0 1-.4-.4v-.2a.4.4 0 0 1 .4-.4h.2a.4.4 0 0 0 .4-.4v-.2a.4.4 0 0 0-.4-.4h-.2a.4.4 0 0 0-.4.4v.2a.4.4 0 0 1-.4.4h-.2a.4.4 0 0 1-.4-.4zm-5 2a.4.4 0 0 1 .4-.4h1.2a.4.4 0 0 1 .4.4v.2a.4.4 0 0 1-.4.4h-.2a.4.4 0 0 0-.4.4v.2a.4.4 0 0 0 .4.4h2.2a.4.4 0 0 1 .4.4v.2a.4.4 0 0 1-.4.4h-1.2a.4.4 0 0 0-.4.4v1.2a.4.4 0 0 1-.4.4h-.2a.4.4 0 0 1-.4-.4v-.2a.4.4 0 0 0-.4-.4h-.2a.4.4 0 0 0-.4.4v1.2a.4.4 0 0 1-.4.4h-1.2a.4.4 0 0 0-.4.4v.2a.4.4 0 0 0 .4.4h.2a.4.4 0 0 1 .4.4v.2a.4.4 0 0 0 .4.4h.2a.4.4 0 0 1 .4.4v.2a.4.4 0 0 1-.4.4h-.2a.4.4 0 0 0-.4.4v.2a.4.4 0 0 1-.4.4h-.2a.4.4 0 0 0-.4.4v.2a.4.4 0 0 1-.4.4h-.2a.4.4 0 0 0-.4.4v1.2a.4.4 0 0 0 .4.4h.2a.4.4 0 0 1 .4.4v.2a.4.4 0 0 1-.4.4h-.2a.4.4 0 0 0-.4.4v1.2a.4.4 0 0 1-.4.4H8.4a.4.4 0 0 1-.4-.4v-.2a.4.4 0 0 0-.4-.4H3.4a.4.4 0 0 1-.4-.4v-.2a.4.4 0 0 1 .4-.4h.2a.4.4 0 0 0 .4-.4v-.2a.4.4 0 0 1 .4-.4h.2a.4.4 0 0 0 .4-.4v-1.2a.4.4 0 0 0-.4-.4H1.4a.4.4 0 0 0-.4.4v2.2a.4.4 0 0 1-.4.4H.4a.4.4 0 0 1-.4-.4v-3.2a.4.4 0 0 1 .4-.4h.2a.4.4 0 0 0 .4-.4v-.2a.4.4 0 0 0-.4-.4H.4a.4.4 0 0 1-.4-.4v-.2a.4.4 0 0 1 .4-.4h.2a.4.4 0 0 0 .4-.4v-.2A.4.4 0 0 0 .6 9H.4a.4.4 0 0 1-.4-.4v-.2A.4.4 0 0 1 .4 8h3.2a.4.4 0 0 1 .4.4v.2a.4.4 0 0 1-.4.4h-.2a.4.4 0 0 0-.4.4v.2a.4.4 0 0 1-.4.4h-.2a.4.4 0 0 0-.4.4v.2a.4.4 0 0 0 .4.4h.2a.4.4 0 0 1 .4.4v.2a.4.4 0 0 0 .4.4h1.2a.4.4 0 0 0 .4-.4v-.2a.4.4 0 0 0-.4-.4H3.4a.4.4 0 0 1-.4-.4v-.2a.4.4 0 0 1 .4-.4h.2a.4.4 0 0 0 .4-.4v-.2a.4.4 0 0 1 .4-.4h1.2a.4.4 0 0 1 .4.4v.2a.4.4 0 0 0 .4.4h.2a.4.4 0 0 1 .4.4v.2a.4.4 0 0 1-.4.4h-.2a.4.4 0 0 0-.4.4v.2a.4.4 0 0 0 .4.4h.2a.4.4 0 0 1 .4.4v.2a.4.4 0 0 1-.4.4h-.2a.4.4 0 0 0-.4.4v.2a.4.4 0 0 0 .4.4h.2a.4.4 0 0 1 .4.4v.2a.4.4 0 0 1-.4.4h-.2a.4.4 0 0 0-.4.4v.2a.4.4 0 0 0 .4.4h.2a.4.4 0 0 0 .4-.4v-.2a.4.4 0 0 1 .4-.4h.2a.4.4 0 0 0 .4-.4v-.2a.4.4 0 0 0-.4-.4h-.2a.4.4 0 0 1-.4-.4v-.2a.4.4 0 0 1 .4-.4h1.2a.4.4 0 0 0 .4-.4v-.2a.4.4 0 0 0-.4-.4H7.4a.4.4 0 0 1-.4-.4v-.2a.4.4 0 0 1 .4-.4h1.2a.4.4 0 0 0 .4-.4v-.2a.4.4 0 0 1 .4-.4h.2a.4.4 0 0 0 .4-.4V5.4a.4.4 0 0 1 .4-.4h.2a.4.4 0 0 1 .4.4v1.2a.4.4 0 0 0 .4.4h.2a.4.4 0 0 0 .4-.4V4.4a.4.4 0 0 1 .4-.4h.2a.4.4 0 0 0 .4-.4zm4 1a.4.4 0 0 1 .4-.4h.2a.4.4 0 0 1 .4.4v.2a.4.4 0 0 1-.4.4h-.2a.4.4 0 0 1-.4-.4zm2 1a.4.4 0 0 1 .4-.4h.2a.4.4 0 0 1 .4.4v.2a.4.4 0 0 0 .4.4h.2a.4.4 0 0 1 .4.4v2.2a.4.4 0 0 1-.4.4h-.2a.4.4 0 0 1-.4-.4V6.4a.4.4 0 0 0-.4-.4h-.2a.4.4 0 0 1-.4-.4zm-11 2a.4.4 0 0 1 .4-.4h.2a.4.4 0 0 1 .4.4v.2a.4.4 0 0 1-.4.4h-.2a.4.4 0 0 1-.4-.4zm8 0a.4.4 0 0 1 .4-.4h.2a.4.4 0 0 1 .4.4v.2a.4.4 0 0 1-.4.4h-.2a.4.4 0 0 1-.4-.4zm2 0a.4.4 0 0 1 .4-.4h.2a.4.4 0 0 1 .4.4v2.2a.4.4 0 0 0 .4.4h1.2a.4.4 0 0 1 .4.4v.2a.4.4 0 0 0 .4.4h.2a.4.4 0 0 1 .4.4v.2a.4.4 0 0 0 .4.4h.2a.4.4 0 0 1 .4.4v.2a.4.4 0 0 1-.4.4h-1.2a.4.4 0 0 1-.4-.4v-.2a.4.4 0 0 0-.4-.4h-.2a.4.4 0 0 1-.4-.4v-.2a.4.4 0 0 0-.4-.4h-.2a.4.4 0 0 0-.4.4v.2a.4.4 0 0 1-.4.4h-.2a.4.4 0 0 1-.4-.4v-.2a.4.4 0 0 0-.4-.4h-1.2a.4.4 0 0 1-.4-.4v-.2a.4.4 0 0 0-.4-.4h-.2a.4.4 0 0 0-.4.4v1.2a.4.4 0 0 1-.4.4h-.2a.4.4 0 0 1-.4-.4V8.4a.4.4 0 0 1 .4-.4h2.2a.4.4 0 0 0 .4-.4v-.2a.4.4 0 0 1 .4-.4h.2a.4.4 0 0 0 .4-.4zm-12 2a.4.4 0 0 1 .4-.4h.2a.4.4 0 0 1 .4.4v.2a.4.4 0 0 1-.4.4h-.2a.4.4 0 0 1-.4-.4zm2 0a.4.4 0 0 1 .4-.4h.2a.4.4 0 0 1 .4.4v1.2a.4.4 0 0 1-.4.4h-.2a.4.4 0 0 1-.4-.4zm13 0a.4.4 0 0 1 .4-.4h.2a.4.4 0 0 1 .4.4v.2a.4.4 0 0 1-.4.4h-.2a.4.4 0 0 1-.4-.4zm3 0a.4.4 0 0 1 .4-.4h2.2a.4.4 0 0 1 .4.4v.2a.4.4 0 0 1-.4.4h-1.2a.4.4 0 0 0-.4.4v.2a.4.4 0 0 1-.4.4h-.2a.4.4 0 0 0-.4.4v.2a.4.4 0 0 1-.4.4h-.2a.4.4 0 0 1-.4-.4v-.2a.4.4 0 0 0-.4-.4h-.2a.4.4 0 0 1-.4-.4v-.2a.4.4 0 0 1 .4-.4h1.2a.4.4 0 0 0 .4-.4zm4 0a.4.4 0 0 1 .4-.4h.2a.4.4 0 0 1 .4.4v1.2a.4.4 0 0 1-.4.4h-.2a.4.4 0 0 1-.4-.4zm-2 2a.4.4 0 0 1 .4-.4h1.2a.4.4 0 0 1 .4.4v.2a.4.4 0 0 1-.4.4h-1.2a.4.4 0 0 1-.4-.4zm-13 1a.4.4 0 0 1 .4-.4h.2a.4.4 0 0 1 .4.4v.2a.4.4 0 0 0 .4.4h.2a.4.4 0 0 0 .4-.4v-.2a.4.4 0 0 1 .4-.4h1.2a.4.4 0 0 1 .4.4v.2a.4.4 0 0 1-.4.4h-.2a.4.4 0 0 0-.4.4v.2a.4.4 0 0 0 .4.4h.2a.4.4 0 0 0 .4-.4v-.2a.4.4 0 0 1 .4-.4h.2a.4.4 0 0 1 .4.4v1.2a.4.4 0 0 1-.4.4h-2.2a.4.4 0 0 1-.4-.4v-.2a.4.4 0 0 0-.4-.4h-1.2a.4.4 0 0 1-.4-.4zm11 0a.4.4 0 0 1 .4-.4h.2a.4.4 0 0 1 .4.4v.2a.4.4 0 0 1-.4.4h-.2a.4.4 0 0 1-.4-.4zm4 0a.4.4 0 0 1 .4-.4h.2a.4.4 0 0 1 .4.4v.2a.4.4 0 0 1-.4.4h-.2a.4.4 0 0 1-.4-.4zm-3 1a.4.4 0 0 1 .4-.4h1.2a.4.4 0 0 1 .4.4v.2a.4.4 0 0 0 .4.4h1.2a.4.4 0 0 1 .4.4v1.2a.4.4 0 0 1-.4.4h-.2a.4.4 0 0 0-.4.4v2.2a.4.4 0 0 1-.4.4h-.2a.4.4 0 0 0-.4.4v2.2a.4.4 0 0 0 .4.4h1.2a.4.4 0 0 1 .4.4v.2a.4.4 0 0 1-.4.4h-.2a.4.4 0 0 0-.4.4v.2a.4.4 0 0 1-.4.4h-.2a.4.4 0 0 1-.4-.4v-.2a.4.4 0 0 0-.4-.4h-.2a.4.4 0 0 0-.4.4v1.2a.4.4 0 0 1-.4.4h-.2a.4.4 0 0 1-.4-.4v-3.2a.4.4 0 0 1 .4-.4h.2a.4.4 0 0 0 .4-.4v-1.2a.4.4 0 0 0-.4-.4h-.2a.4.4 0 0 1-.4-.4v-.2a.4.4 0 0 0-.4-.4h-.2a.4.4 0 0 1-.4-.4v-.2a.4.4 0 0 0-.4-.4h-2.2a.4.4 0 0 0-.4.4v.2a.4.4 0 0 1-.4.4h-1.2a.4.4 0 0 0-.4.4v1.2a.4.4 0 0 1-.4.4h-.2a.4.4 0 0 1-.4-.4v-.2a.4.4 0 0 0-.4-.4h-.2a.4.4 0 0 1-.4-.4v-.2a.4.4 0 0 1 .4-.4h.2a.4.4 0 0 0 .4-.4v-.2a.4.4 0 0 1 .4-.4h.2a.4.4 0 0 0 .4-.4v-.2a.4.4 0 0 0-.4-.4h-.2a.4.4 0 0 1-.4-.4v-.2a.4.4 0 0 1 .4-.4h.2a.4.4 0 0 0 .4-.4v-.2a.4.4 0 0 1 .4-.4h.2a.4.4 0 0 1 .4.4v.2a.4.4 0 0 0 .4.4h.2a.4.4 0 0 1 .4.4v.2a.4.4 0 0 0 .4.4h.2a.4.4 0 0 0 .4-.4v-1.2a.4.4 0 0 1 .4-.4h.2a.4.4 0 0 1 .4.4v1.2a.4.4 0 0 0 .4.4h1.2a.4.4 0 0 1 .4.4v.2a.4.4 0 0 0 .4.4h.2a.4.4 0 0 1 .4.4v.2a.4.4 0 0 0 .4.4h.2a.4.4 0 0 0 .4-.4v-1.2a.4.4 0 0 0-.4-.4h-.2a.4.4 0 0 1-.4-.4v-1.2a.4.4 0 0 0-.4-.4h-.2a.4.4 0 0 1-.4-.4zm-13 1a.4.4 0 0 1 .4-.4h.2a.4.4 0 0 1 .4.4v.2a.4.4 0 0 0 .4.4h1.2a.4.4 0 0 1 .4.4v1.2a.4.4 0 0 1-.4.4h-.2a.4.4 0 0 1-.4-.4v-.2a.4.4 0 0 0-.4-.4h-.2a.4.4 0 0 0-.4.4v.2a.4.4 0 0 1-.4.4h-.2a.4.4 0 0 1-.4-.4zm-9 1a.4.4 0 0 1 .4-.4h.2a.4.4 0 0 1 .4.4v.2a.4.4 0 0 1-.4.4h-.2a.4.4 0 0 1-.4-.4zm13 1a.4.4 0 0 1 .4-.4h.2a.4.4 0 0 1 .4.4v.2a.4.4 0 0 1-.4.4h-.2a.4.4 0 0 1-.4-.4zm-15 1a.4.4 0 0 1 .4-.4h.2a.4.4 0 0 1 .4.4v.2a.4.4 0 0 1-.4.4h-.2a.4.4 0 0 1-.4-.4zm10 0a.4.4 0 0 1 .4-.4h.2a.4.4 0 0 1 .4.4v.2a.4.4 0 0 0 .4.4h.2a.4.4 0 0 0 .4-.4v-.2a.4.4 0 0 1 .4-.4h.2a.4.4 0 0 1 .4.4v2.2a.4.4 0 0 1-.4.4h-.2a.4.4 0 0 1-.4-.4v-.2a.4.4 0 0 0-.4-.4h-1.2a.4.4 0 0 1-.4-.4zm4 0a.4.4 0 0 1 .4-.4h.2a.4.4 0 0 1 .4.4v1.2a.4.4 0 0 0 .4.4h.2a.4.4 0 0 1 .4.4v.2a.4.4 0 0 0 .4.4h.2a.4.4 0 0 1 .4.4v.2a.4.4 0 0 0 .4.4h.2a.4.4 0 0 1 .4.4v1.2a.4.4 0 0 1-.4.4h-.2a.4.4 0 0 1-.4-.4v-.2a.4.4 0 0 0-.4-.4h-.2a.4.4 0 0 0-.4.4v1.2a.4.4 0 0 1-.4.4h-.2a.4.4 0 0 1-.4-.4v-1.2a.4.4 0 0 0-.4-.4h-.2a.4.4 0 0 1-.4-.4v-.2a.4.4 0 0 1 .4-.4h.2a.4.4 0 0 0 .4-.4v-.2a.4.4 0 0 0-.4-.4h-.2a.4.4 0 0 1-.4-.4zm8 1a.4.4 0 0 1 .4-.4h.2a.4.4 0 0 1 .4.4v.2a.4.4 0 0 0 .4.4h.2a.4.4 0 0 1 .4.4v1.2a.4.4 0 0 1-.4.4h-2.2a.4.4 0 0 1-.4-.4v-1.2a.4.4 0 0 1 .4-.4h.2a.4.4 0 0 0 .4-.4zm-23 1a.4.4 0 0 1 .4-.4h.2a.4.4 0 0 1 .4.4v.2a.4.4 0 0 1-.4.4H.4a.4.4 0 0 1-.4-.4zm6 0a.4.4 0 0 1 .4-.4h.2a.4.4 0 0 1 .4.4v.2a.4.4 0 0 1-.4.4h-.2a.4.4 0 0 1-.4-.4zm4 0a.4.4 0 0 1 .4-.4h.2a.4.4 0 0 1 .4.4v.2a.4.4 0 0 1-.4.4h-.2a.4.4 0 0 1-.4-.4zm10 0a.4.4 0 0 1 .4-.4h.2a.4.4 0 0 1 .4.4v.2a.4.4 0 0 1-.4.4h-.2a.4.4 0 0 1-.4-.4zm-18 1a.4.4 0 0 1 .4-.4h1.2a.4.4 0 0 1 .4.4v1.2a.4.4 0 0 1-.4.4h-.2a.4.4 0 0 1-.4-.4v-.2a.4.4 0 0 0-.4-.4h-.2a.4.4 0 0 1-.4-.4zm3 0a.4.4 0 0 1 .4-.4h.2a.4.4 0 0 1 .4.4v.2a.4.4 0 0 0 .4.4h.2a.4.4 0 0 0 .4-.4v-.2a.4.4 0 0 1 .4-.4h2.2a.4.4 0 0 1 .4.4v.2a.4.4 0 0 1-.4.4h-.2a.4.4 0 0 0-.4.4v.2a.4.4 0 0 0 .4.4h.2a.4.4 0 0 1 .4.4v1.2a.4.4 0 0 1-.4.4h-.2a.4.4 0 0 1-.4-.4v-.2a.4.4 0 0 0-.4-.4h-.2a.4.4 0 0 1-.4-.4v-.2a.4.4 0 0 0-.4-.4H5.4a.4.4 0 0 1-.4-.4zm6 0a.4.4 0 0 1 .4-.4h1.2a.4.4 0 0 1 .4.4v.2a.4.4 0 0 1-.4.4h-1.2a.4.4 0 0 1-.4-.4zm3 0a.4.4 0 0 1 .4-.4h.2a.4.4 0 0 1 .4.4v.2a.4.4 0 0 1-.4.4h-.2a.4.4 0 0 1-.4-.4zm-13 1a.4.4 0 0 1 .4-.4h.2a.4.4 0 0 1 .4.4v.2a.4.4 0 0 1-.4.4h-.2a.4.4 0 0 1-.4-.4zm9 0a.4.4 0 0 1 .4-.4h.2a.4.4 0 0 1 .4.4v.2a.4.4 0 0 1-.4.4h-.2a.4.4 0 0 1-.4-.4zm1 1a.4.4 0 0 1 .4-.4h.2a.4.4 0 0 1 .4.4v1.2a.4.4 0 0 1-.4.4h-.2a.4.4 0 0 1-.4-.4zm2 0a.4.4 0 0 1 .4-.4h.2a.4.4 0 0 1 .4.4v1.2a.4.4 0 0 0 .4.4h1.2a.4.4 0 0 1 .4.4v.2a.4.4 0 0 1-.4.4h-.2a.4.4 0 0 0-.4.4v.2a.4.4 0 0 1-.4.4h-1.2a.4.4 0 0 0-.4.4v1.2a.4.4 0 0 1-.4.4h-.2a.4.4 0 0 1-.4-.4v-1.2a.4.4 0 0 0-.4-.4h-.2a.4.4 0 0 0-.4.4v.2a.4.4 0 0 1-.4.4H9.4a.4.4 0 0 0-.4.4v1.2a.4.4 0 0 0 .4.4h.2a.4.4 0 0 1 .4.4v.2a.4.4 0 0 1-.4.4H8.4a.4.4 0 0 1-.4-.4v-3.2a.4.4 0 0 1 .4-.4h.2a.4.4 0 0 0 .4-.4v-.2a.4.4 0 0 1 .4-.4h.2a.4.4 0 0 0 .4-.4v-.2a.4.4 0 0 1 .4-.4h.2a.4.4 0 0 1 .4.4v.2a.4.4 0 0 0 .4.4h.2a.4.4 0 0 0 .4-.4v-.2a.4.4 0 0 1 .4-.4h.2a.4.4 0 0 0 .4-.4zm6 1a.4.4 0 0 1 .4-.4h.2a.4.4 0 0 1 .4.4v.2a.4.4 0 0 1-.4.4h-.2a.4.4 0 0 1-.4-.4zm-1 1a.4.4 0 0 1 .4-.4h.2a.4.4 0 0 1 .4.4v.2a.4.4 0 0 1-.4.4h-.2a.4.4 0 0 1-.4-.4zm-1 1a.4.4 0 0 1 .4-.4h.2a.4.4 0 0 1 .4.4v.2a.4.4 0 0 1-.4.4h-.2a.4.4 0 0 1-.4-.4zm9 0a.4.4 0 0 1 .4-.4h1.2a.4.4 0 0 1 .4.4v.2a.4.4 0 0 0 .4.4h.2a.4.4 0 0 1 .4.4v1.2a.4.4 0 0 1-.4.4h-.2a.4.4 0 0 1-.4-.4v-.2a.4.4 0 0 0-.4-.4h-.2a.4.4 0 0 1-.4-.4v-.2a.4.4 0 0 0-.4-.4h-.2a.4.4 0 0 1-.4-.4zm-11 1a.4.4 0 0 1 .4-.4h.2a.4.4 0 0 1 .4.4v.2a.4.4 0 0 1-.4.4h-.2a.4.4 0 0 1-.4-.4zm4 0a.4.4 0 0 1 .4-.4h.2a.4.4 0 0 1 .4.4v.2a.4.4 0 0 1-.4.4h-.2a.4.4 0 0 1-.4-.4zm2 0a.4.4 0 0 1 .4-.4h.2a.4.4 0 0 1 .4.4v.2a.4.4 0 0 1-.4.4h-.2a.4.4 0 0 1-.4-.4zm2 0a.4.4 0 0 1 .4-.4h2.2a.4.4 0 0 1 .4.4v.2a.4.4 0 0 1-.4.4h-1.2a.4.4 0 0 0-.4.4v1.2a.4.4 0 0 1-.4.4h-.2a.4.4 0 0 1-.4-.4zm-6 1a.4.4 0 0 1 .4-.4h1.2a.4.4 0 0 1 .4.4v.2a.4.4 0 0 1-.4.4h-1.2a.4.4 0 0 1-.4-.4zm3 0a.4.4 0 0 1 .4-.4h.2a.4.4 0 0 1 .4.4v.2a.4.4 0 0 0 .4.4h.2a.4.4 0 0 1 .4.4v.2a.4.4 0 0 0 .4.4h.2a.4.4 0 0 1 .4.4v.2a.4.4 0 0 1-.4.4h-4.2a.4.4 0 0 1-.4-.4v-.2a.4.4 0 0 1 .4-.4h1.2a.4.4 0 0 0 .4-.4zm6 0a.4.4 0 0 1 .4-.4h.2a.4.4 0 0 1 .4.4v.2a.4.4 0 0 1-.4.4h-.2a.4.4 0 0 1-.4-.4zm-16 1a.4.4 0 0 1 .4-.4h.2a.4.4 0 0 1 .4.4v.2a.4.4 0 0 1-.4.4h-.2a.4.4 0 0 1-.4-.4zm5 0a.4.4 0 0 1 .4-.4h1.2a.4.4 0 0 1 .4.4v.2a.4.4 0 0 1-.4.4h-.2a.4.4 0 0 0-.4.4v.2a.4.4 0 0 1-.4.4h-.2a.4.4 0 0 1-.4-.4zm10 0a.4.4 0 0 1 .4-.4h.2a.4.4 0 0 1 .4.4v.2a.4.4 0 0 1-.4.4h-.2a.4.4 0 0 1-.4-.4zm2 0a.4.4 0 0 1 .4-.4h.2a.4.4 0 0 1 .4.4v1.2a.4.4 0 0 1-.4.4h-.2a.4.4 0 0 1-.4-.4zm-16 1a.4.4 0 0 1 .4-.4h.2a.4.4 0 0 1 .4.4v.2a.4.4 0 0 1-.4.4h-.2a.4.4 0 0 1-.4-.4zm2 0a.4.4 0 0 1 .4-.4h.2a.4.4 0 0 1 .4.4v.2a.4.4 0 0 1-.4.4h-.2a.4.4 0 0 1-.4-.4z"/><path d="M1.05 0h4.9A1.05 1.05 0 0 1 7 1.05v4.9A1.05 1.05 0 0 1 5.95 7h-4.9A1.05 1.05 0 0 1 0 5.95v-4.9A1.05 1.05 0 0 1 1.05 0zm.7 1h3.5a.75.75 0 0 1 .75.75v3.5a.75.75 0 0 1-.75.75h-3.5A.75.75 0 0 1 1 5.25v-3.5A.75.75 0 0 1 1.75 1zm.7 1h2.1a.45.45 0 0 1 .45.45v2.1a.45.45 0 0 1-.45.45h-2.1A.45.45 0 0 1 2 4.55v-2.1A.45.45 0 0 1 2.45 2zm20.6-2h4.9A1.05 1.05 0 0 1 29 1.05v4.9A1.05 1.05 0 0 1 27.95 7h-4.9A1.05 1.05 0 0 1 22 5.95v-4.9A1.05 1.05 0 0 1 23.05 0zm.7 1h3.5a.75.75 0 0 1 .75.75v3.5a.75.75 0 0 1-.75.75h-3.5a.75.75 0 0 1-.75-.75v-3.5a.75.75 0 0 1 .75-.75zm.7 1h2.1a.45.45 0 0 1 .45.45v2.1a.45.45 0 0 1-.45.45h-2.1a.45.45 0 0 1-.45-.45v-2.1a.45.45 0 0 1 .45-.45zM1.05 22h4.9A1.05 1.05 0 0 1 7 23.05v4.9A1.05 1.05 0 0 1 5.95 29h-4.9A1.05 1.05 0 0 1 0 27.95v-4.9A1.05 1.05 0 0 1 1.05 22zm.7 1h3.5a.75.75 0 0 1 .75.75v3.5a.75.75 0 0 1-.75.75h-3.5a.75.75 0 0 1-.75-.75v-3.5a.75.75 0 0 1 .75-.75zm.7 1h2.1a.45.45 0 0 1 .45.45v2.1a.45.45 0 0 1-.45.45h-2.1a.45.45 0 0 1-.45-.45v-2.1a.45.45 0 0 1 .45-.45zm18.3-4h3.5a.75.75 0 0 1 .75.75v3.5a.75.75 0 0 1-.75.75h-3.5a.75.75 0 0 1-.75-.75v-3.5a.75.75 0 0 1 .75-.75zm.7 1h2.1a.45.45 0 0 1 .45.45v2.1a.45.45 0 0 1-.45.45h-2.1a.45.45 0 0 1-.45-.45v-2.1a.45.45 0 0 1 .45-.45zm.7 1h.7a.15.15 0 0 1 .15.15v.7a.15.15 0 0 1-.15.15h-.7a.15.15 0 0 1-.15-.15v-.7a.15.15 0 0 1 .15-.15z" fill-rule="evenodd"/></svg>
